<svg width="1232" height="351" viewBox="0 0 1232 351" fill="none" xmlns="http://www.w3.org/2000/svg">
<path d="M460.896 267.792C447.755 267.792 435.979 265.659 425.568 261.392C415.157 257.125 406.795 250.811 400.48 242.448C394.336 234.085 391.093 224.016 390.752 212.24H437.344C438.027 218.896 440.331 224.016 444.256 227.6C448.181 231.013 453.301 232.72 459.616 232.72C466.101 232.72 471.221 231.269 474.976 228.368C478.731 225.296 480.608 221.115 480.608 215.824C480.608 211.387 479.072 207.717 476 204.816C473.099 201.915 469.429 199.525 464.992 197.648C460.725 195.771 454.581 193.637 446.56 191.248C434.955 187.664 425.483 184.08 418.144 180.496C410.805 176.912 404.491 171.621 399.2 164.624C393.909 157.627 391.264 148.496 391.264 137.232C391.264 120.507 397.323 107.451 409.44 98.064C421.557 88.5067 437.344 83.728 456.8 83.728C476.597 83.728 492.555 88.5067 504.672 98.064C516.789 107.451 523.275 120.592 524.128 137.488H476.768C476.427 131.685 474.293 127.163 470.368 123.92C466.443 120.507 461.408 118.8 455.264 118.8C449.973 118.8 445.707 120.251 442.464 123.152C439.221 125.883 437.6 129.893 437.6 135.184C437.6 140.987 440.331 145.509 445.792 148.752C451.253 151.995 459.787 155.493 471.392 159.248C482.997 163.173 492.384 166.928 499.552 170.512C506.891 174.096 513.205 179.301 518.496 186.128C523.787 192.955 526.432 201.744 526.432 212.496C526.432 222.736 523.787 232.037 518.496 240.4C513.376 248.763 505.867 255.419 495.968 260.368C486.069 265.317 474.379 267.792 460.896 267.792ZM544.668 194.832C544.668 180.667 547.569 168.037 553.372 156.944C559.345 145.851 567.281 137.232 577.18 131.088C587.249 124.773 598.172 121.616 609.948 121.616C618.993 121.616 627.1 123.237 634.268 126.48C641.436 129.552 647.239 133.904 651.676 139.536V123.152H695.452V334.096H651.676V248.08C646.727 254.053 640.668 258.832 633.5 262.416C626.503 266 618.481 267.792 609.436 267.792C597.831 267.792 587.079 264.72 577.18 258.576C567.281 252.432 559.345 243.813 553.372 232.72C547.569 221.627 544.668 208.997 544.668 194.832ZM651.676 194.576C651.676 186.896 650.14 180.496 647.068 175.376C644.167 170.085 640.327 166.16 635.548 163.6C630.769 160.869 625.735 159.504 620.444 159.504C615.324 159.504 610.375 160.869 605.596 163.6C600.817 166.16 596.892 170.085 593.82 175.376C590.748 180.667 589.212 187.152 589.212 194.832C589.212 202.512 590.748 208.997 593.82 214.288C596.892 219.408 600.817 223.333 605.596 226.064C610.375 228.624 615.324 229.904 620.444 229.904C625.564 229.904 630.513 228.624 635.292 226.064C640.241 223.333 644.167 219.323 647.068 214.032C650.14 208.741 651.676 202.256 651.676 194.576ZM868.178 123.152V266H824.402V246.544C819.965 252.859 813.906 257.979 806.226 261.904C798.717 265.659 790.354 267.536 781.138 267.536C770.215 267.536 760.573 265.147 752.21 260.368C743.847 255.419 737.362 248.336 732.754 239.12C728.146 229.904 725.842 219.067 725.842 206.608V123.152H769.362V200.72C769.362 210.277 771.837 217.701 776.786 222.992C781.735 228.283 788.391 230.928 796.754 230.928C805.287 230.928 812.029 228.283 816.978 222.992C821.927 217.701 824.402 210.277 824.402 200.72V123.152H868.178ZM890.918 194.32C890.918 179.643 893.649 166.757 899.11 155.664C904.742 144.571 912.337 136.037 921.894 130.064C931.451 124.091 942.118 121.104 953.894 121.104C963.963 121.104 972.753 123.152 980.262 127.248C987.942 131.344 993.83 136.72 997.926 143.376V123.152H1041.7V266H997.926V245.776C993.659 252.432 987.686 257.808 980.006 261.904C972.497 266 963.707 268.048 953.638 268.048C942.033 268.048 931.451 265.061 921.894 259.088C912.337 252.944 904.742 244.325 899.11 233.232C893.649 221.968 890.918 208.997 890.918 194.32ZM997.926 194.576C997.926 183.653 994.854 175.035 988.71 168.72C982.737 162.405 975.398 159.248 966.694 159.248C957.99 159.248 950.566 162.405 944.422 168.72C938.449 174.864 935.462 183.397 935.462 194.32C935.462 205.243 938.449 213.947 944.422 220.432C950.566 226.747 957.99 229.904 966.694 229.904C975.398 229.904 982.737 226.747 988.71 220.432C994.854 214.117 997.926 205.499 997.926 194.576ZM1064.67 194.32C1064.67 179.643 1067.4 166.757 1072.86 155.664C1078.49 144.571 1086.09 136.037 1095.64 130.064C1105.2 124.091 1115.87 121.104 1127.64 121.104C1137.03 121.104 1145.56 123.067 1153.24 126.992C1161.09 130.917 1167.24 136.208 1171.68 142.864V76.56H1215.45V266H1171.68V245.52C1167.58 252.347 1161.69 257.808 1154.01 261.904C1146.5 266 1137.71 268.048 1127.64 268.048C1115.87 268.048 1105.2 265.061 1095.64 259.088C1086.09 252.944 1078.49 244.325 1072.86 233.232C1067.4 221.968 1064.67 208.997 1064.67 194.32ZM1171.68 194.576C1171.68 183.653 1168.6 175.035 1162.46 168.72C1156.49 162.405 1149.15 159.248 1140.44 159.248C1131.74 159.248 1124.32 162.405 1118.17 168.72C1112.2 174.864 1109.21 183.397 1109.21 194.32C1109.21 205.243 1112.2 213.947 1118.17 220.432C1124.32 226.747 1131.74 229.904 1140.44 229.904C1149.15 229.904 1156.49 226.747 1162.46 220.432C1168.6 214.117 1171.68 205.499 1171.68 194.576Z" fill="#04111D"/>
<path d="M323.578 175.5C323.591 150.215 317.129 125.347 304.807 103.267C292.486 81.1864 274.715 62.6291 253.189 49.363C231.663 36.0969 207.099 28.564 181.837 27.482C156.574 26.3999 131.456 31.8049 108.874 43.1818C86.2927 54.5587 67.0007 71.5285 52.8363 92.4743C38.6719 113.42 30.107 137.644 27.9578 162.838C25.8086 188.032 30.1466 213.357 40.5585 236.399C50.9704 259.442 67.1094 279.434 87.4375 294.471C87.7691 294.755 88.1032 295.037 88.4624 295.298C88.843 295.574 89.2322 295.83 89.6276 296.07C114.687 313.961 144.709 323.578 175.5 323.578C206.291 323.578 236.313 313.961 261.372 296.07C261.768 295.83 262.157 295.574 262.538 295.298C262.897 295.037 263.231 294.755 263.562 294.471C282.174 280.716 297.299 262.787 307.722 242.125C318.145 221.462 323.576 198.643 323.578 175.5ZM255.765 257.983L237.227 232.467L258.922 165.694L288.975 155.93C292.181 174.359 290.831 193.293 285.043 211.08C279.254 228.868 269.203 244.97 255.765 257.983ZM143.966 218.902L124.477 158.922L175.5 121.851L226.523 158.922L207.034 218.902H143.966ZM278.797 124.637L248.753 134.399L191.953 93.1313V61.5225C210.458 64.2231 228.029 71.3782 243.157 82.3722C258.284 93.3663 270.515 107.87 278.797 124.637ZM159.047 61.5225V93.1313L102.247 134.399L72.203 124.637C80.485 107.87 92.7157 93.3663 107.843 82.3722C122.971 71.3782 140.542 64.2231 159.047 61.5225ZM60.3281 175.5C60.3363 168.94 60.9041 162.393 62.0255 155.93L92.0779 165.694L113.774 232.467L95.2348 257.983C84.1864 247.275 75.403 234.455 69.4065 220.286C63.41 206.116 60.3228 190.886 60.3281 175.5ZM121.832 277.359L140.395 251.809H210.605L229.168 277.359C212.63 286.102 194.207 290.672 175.5 290.672C156.793 290.672 138.37 286.102 121.832 277.359Z" fill="#2081E2" stroke="#2081E2" stroke-width="0.703125"/>
</svg>
