<svg width="2514" height="351" viewBox="0 0 2514 351" fill="none" xmlns="http://www.w3.org/2000/svg">
<path d="M525.152 86.288V121.36H477.536V266H433.76V121.36H386.144V86.288H525.152ZM634.93 121.616C651.314 121.616 664.455 127.077 674.354 138C684.253 148.752 689.202 163.6 689.202 182.544V266H645.682V188.432C645.682 178.875 643.207 171.451 638.258 166.16C633.309 160.869 626.653 158.224 618.29 158.224C609.927 158.224 603.271 160.869 598.322 166.16C593.373 171.451 590.898 178.875 590.898 188.432V266H547.122V76.56H590.898V142.352C595.335 136.037 601.394 131.003 609.074 127.248C616.754 123.493 625.373 121.616 634.93 121.616ZM854.278 192.272C854.278 196.368 854.022 200.635 853.51 205.072H754.438C755.121 213.947 757.937 220.773 762.886 225.552C768.006 230.16 774.235 232.464 781.574 232.464C792.497 232.464 800.091 227.856 804.358 218.64H850.95C848.561 228.027 844.209 236.475 837.894 243.984C831.75 251.493 823.985 257.381 814.598 261.648C805.211 265.915 794.715 268.048 783.11 268.048C769.115 268.048 756.657 265.061 745.734 259.088C734.811 253.115 726.278 244.581 720.134 233.488C713.99 222.395 710.918 209.424 710.918 194.576C710.918 179.728 713.905 166.757 719.878 155.664C726.022 144.571 734.555 136.037 745.478 130.064C756.401 124.091 768.945 121.104 783.11 121.104C796.934 121.104 809.222 124.005 819.974 129.808C830.726 135.611 839.089 143.888 845.062 154.64C851.206 165.392 854.278 177.936 854.278 192.272ZM809.478 180.752C809.478 173.243 806.918 167.269 801.798 162.832C796.678 158.395 790.278 156.176 782.598 156.176C775.259 156.176 769.03 158.309 763.91 162.576C758.961 166.843 755.889 172.901 754.694 180.752H809.478ZM944.7 86.288C963.644 86.288 980.199 90.0427 994.364 97.552C1008.53 105.061 1019.45 115.643 1027.13 129.296C1034.98 142.779 1038.91 158.395 1038.91 176.144C1038.91 193.723 1034.98 209.339 1027.13 222.992C1019.45 236.645 1008.44 247.227 994.108 254.736C979.943 262.245 963.473 266 944.7 266H877.372V86.288H944.7ZM941.884 228.112C958.439 228.112 971.324 223.589 980.54 214.544C989.756 205.499 994.364 192.699 994.364 176.144C994.364 159.589 989.756 146.704 980.54 137.488C971.324 128.272 958.439 123.664 941.884 123.664H921.148V228.112H941.884ZM1107.15 146.96C1112.27 139.109 1118.67 132.965 1126.35 128.528C1134.03 123.92 1142.56 121.616 1151.95 121.616V167.952H1139.92C1128.99 167.952 1120.8 170.341 1115.34 175.12C1109.88 179.728 1107.15 187.92 1107.15 199.696V266H1063.37V123.152H1107.15V146.96ZM1307.53 192.272C1307.53 196.368 1307.27 200.635 1306.76 205.072H1207.69C1208.37 213.947 1211.19 220.773 1216.14 225.552C1221.26 230.16 1227.49 232.464 1234.82 232.464C1245.75 232.464 1253.34 227.856 1257.61 218.64H1304.2C1301.81 228.027 1297.46 236.475 1291.14 243.984C1285 251.493 1277.23 257.381 1267.85 261.648C1258.46 265.915 1247.97 268.048 1236.36 268.048C1222.37 268.048 1209.91 265.061 1198.98 259.088C1188.06 253.115 1179.53 244.581 1173.38 233.488C1167.24 222.395 1164.17 209.424 1164.17 194.576C1164.17 179.728 1167.15 166.757 1173.13 155.664C1179.27 144.571 1187.81 136.037 1198.73 130.064C1209.65 124.091 1222.19 121.104 1236.36 121.104C1250.18 121.104 1262.47 124.005 1273.22 129.808C1283.98 135.611 1292.34 143.888 1298.31 154.64C1304.46 165.392 1307.53 177.936 1307.53 192.272ZM1262.73 180.752C1262.73 173.243 1260.17 167.269 1255.05 162.832C1249.93 158.395 1243.53 156.176 1235.85 156.176C1228.51 156.176 1222.28 158.309 1217.16 162.576C1212.21 166.843 1209.14 172.901 1207.94 180.752H1262.73ZM1321.92 194.32C1321.92 179.643 1324.65 166.757 1330.11 155.664C1335.74 144.571 1343.34 136.037 1352.89 130.064C1362.45 124.091 1373.12 121.104 1384.89 121.104C1394.96 121.104 1403.75 123.152 1411.26 127.248C1418.94 131.344 1424.83 136.72 1428.93 143.376V123.152H1472.7V266H1428.93V245.776C1424.66 252.432 1418.69 257.808 1411.01 261.904C1403.5 266 1394.71 268.048 1384.64 268.048C1373.03 268.048 1362.45 265.061 1352.89 259.088C1343.34 252.944 1335.74 244.325 1330.11 233.232C1324.65 221.968 1321.92 208.997 1321.92 194.32ZM1428.93 194.576C1428.93 183.653 1425.85 175.035 1419.71 168.72C1413.74 162.405 1406.4 159.248 1397.69 159.248C1388.99 159.248 1381.57 162.405 1375.42 168.72C1369.45 174.864 1366.46 183.397 1366.46 194.32C1366.46 205.243 1369.45 213.947 1375.42 220.432C1381.57 226.747 1388.99 229.904 1397.69 229.904C1406.4 229.904 1413.74 226.747 1419.71 220.432C1425.85 214.117 1428.93 205.499 1428.93 194.576ZM1686.64 121.616C1704.39 121.616 1718.47 126.992 1728.88 137.744C1739.47 148.496 1744.76 163.429 1744.76 182.544V266H1701.24V188.432C1701.24 179.216 1698.76 172.133 1693.81 167.184C1689.03 162.064 1682.38 159.504 1673.84 159.504C1665.31 159.504 1658.57 162.064 1653.62 167.184C1648.84 172.133 1646.45 179.216 1646.45 188.432V266H1602.93V188.432C1602.93 179.216 1600.46 172.133 1595.51 167.184C1590.73 162.064 1584.07 159.504 1575.54 159.504C1567.01 159.504 1560.27 162.064 1555.32 167.184C1550.54 172.133 1548.15 179.216 1548.15 188.432V266H1504.37V123.152H1548.15V141.072C1552.59 135.099 1558.39 130.405 1565.56 126.992C1572.72 123.408 1580.83 121.616 1589.88 121.616C1600.63 121.616 1610.19 123.92 1618.55 128.528C1627.08 133.136 1633.74 139.707 1638.52 148.24C1643.47 140.389 1650.21 133.989 1658.74 129.04C1667.27 124.091 1676.57 121.616 1686.64 121.616ZM1904.65 86.288V121.36H1857.04V266H1813.26V121.36H1765.64V86.288H1904.65ZM2061.28 192.272C2061.28 196.368 2061.02 200.635 2060.51 205.072H1961.44C1962.12 213.947 1964.94 220.773 1969.89 225.552C1975.01 230.16 1981.24 232.464 1988.57 232.464C1999.5 232.464 2007.09 227.856 2011.36 218.64H2057.95C2055.56 228.027 2051.21 236.475 2044.89 243.984C2038.75 251.493 2030.98 257.381 2021.6 261.648C2012.21 265.915 2001.72 268.048 1990.11 268.048C1976.12 268.048 1963.66 265.061 1952.73 259.088C1941.81 253.115 1933.28 244.581 1927.13 233.488C1920.99 222.395 1917.92 209.424 1917.92 194.576C1917.92 179.728 1920.9 166.757 1926.88 155.664C1933.02 144.571 1941.56 136.037 1952.48 130.064C1963.4 124.091 1975.94 121.104 1990.11 121.104C2003.93 121.104 2016.22 124.005 2026.97 129.808C2037.73 135.611 2046.09 143.888 2052.06 154.64C2058.21 165.392 2061.28 177.936 2061.28 192.272ZM2016.48 180.752C2016.48 173.243 2013.92 167.269 2008.8 162.832C2003.68 158.395 1997.28 156.176 1989.6 156.176C1982.26 156.176 1976.03 158.309 1970.91 162.576C1965.96 166.843 1962.89 172.901 1961.69 180.752H2016.48ZM2075.67 194.32C2075.67 179.643 2078.4 166.757 2083.86 155.664C2089.49 144.571 2097.09 136.037 2106.64 130.064C2116.2 124.091 2126.87 121.104 2138.64 121.104C2148.71 121.104 2157.5 123.152 2165.01 127.248C2172.69 131.344 2178.58 136.72 2182.68 143.376V123.152H2226.45V266H2182.68V245.776C2178.41 252.432 2172.44 257.808 2164.76 261.904C2157.25 266 2148.46 268.048 2138.39 268.048C2126.78 268.048 2116.2 265.061 2106.64 259.088C2097.09 252.944 2089.49 244.325 2083.86 233.232C2078.4 221.968 2075.67 208.997 2075.67 194.32ZM2182.68 194.576C2182.68 183.653 2179.6 175.035 2173.46 168.72C2167.49 162.405 2160.15 159.248 2151.44 159.248C2142.74 159.248 2135.32 162.405 2129.17 168.72C2123.2 174.864 2120.21 183.397 2120.21 194.32C2120.21 205.243 2123.2 213.947 2129.17 220.432C2135.32 226.747 2142.74 229.904 2151.44 229.904C2160.15 229.904 2167.49 226.747 2173.46 220.432C2179.6 214.117 2182.68 205.499 2182.68 194.576ZM2440.39 121.616C2458.14 121.616 2472.22 126.992 2482.63 137.744C2493.22 148.496 2498.51 163.429 2498.51 182.544V266H2454.99V188.432C2454.99 179.216 2452.51 172.133 2447.56 167.184C2442.78 162.064 2436.13 159.504 2427.59 159.504C2419.06 159.504 2412.32 162.064 2407.37 167.184C2402.59 172.133 2400.2 179.216 2400.2 188.432V266H2356.68V188.432C2356.68 179.216 2354.21 172.133 2349.26 167.184C2344.48 162.064 2337.82 159.504 2329.29 159.504C2320.76 159.504 2314.02 162.064 2309.07 167.184C2304.29 172.133 2301.9 179.216 2301.9 188.432V266H2258.12V123.152H2301.9V141.072C2306.34 135.099 2312.14 130.405 2319.31 126.992C2326.47 123.408 2334.58 121.616 2343.63 121.616C2354.38 121.616 2363.94 123.92 2372.3 128.528C2380.83 133.136 2387.49 139.707 2392.27 148.24C2397.22 140.389 2403.96 133.989 2412.49 129.04C2421.02 124.091 2430.32 121.616 2440.39 121.616Z" fill="#04111D"/>
<path d="M323.578 175.5C323.591 150.215 317.129 125.347 304.807 103.267C292.486 81.1864 274.715 62.6291 253.189 49.363C231.663 36.0969 207.099 28.564 181.837 27.482C156.574 26.3999 131.456 31.8049 108.874 43.1818C86.2927 54.5587 67.0007 71.5285 52.8363 92.4743C38.6719 113.42 30.107 137.644 27.9578 162.838C25.8086 188.032 30.1466 213.357 40.5585 236.399C50.9704 259.442 67.1094 279.434 87.4375 294.471C87.7691 294.755 88.1032 295.037 88.4624 295.298C88.843 295.574 89.2322 295.83 89.6276 296.07C114.687 313.961 144.709 323.578 175.5 323.578C206.291 323.578 236.313 313.961 261.372 296.07C261.768 295.83 262.157 295.574 262.538 295.298C262.897 295.037 263.231 294.755 263.563 294.471C282.174 280.716 297.299 262.787 307.722 242.125C318.145 221.462 323.576 198.643 323.578 175.5ZM255.765 257.983L237.227 232.467L258.922 165.694L288.975 155.93C292.181 174.359 290.831 193.293 285.043 211.08C279.254 228.868 269.203 244.97 255.765 257.983ZM143.966 218.902L124.477 158.922L175.5 121.851L226.523 158.922L207.034 218.902H143.966ZM278.797 124.637L248.753 134.399L191.953 93.1313V61.5225C210.458 64.2231 228.029 71.3782 243.157 82.3722C258.284 93.3663 270.515 107.87 278.797 124.637ZM159.047 61.5225V93.1313L102.247 134.399L72.203 124.637C80.485 107.87 92.7157 93.3663 107.843 82.3722C122.971 71.3782 140.542 64.2231 159.047 61.5225ZM60.3281 175.5C60.3363 168.94 60.9041 162.393 62.0255 155.93L92.0779 165.694L113.774 232.467L95.2348 257.983C84.1864 247.275 75.403 234.455 69.4065 220.286C63.41 206.116 60.3228 190.886 60.3281 175.5ZM121.832 277.359L140.395 251.809H210.605L229.168 277.359C212.63 286.102 194.207 290.672 175.5 290.672C156.793 290.672 138.37 286.102 121.832 277.359Z" fill="#2081E2" stroke="#2081E2" stroke-width="0.703125"/>
</svg>
